# xmcd
# Track frame offsets:
# 150
# 11911
# 21939
# 32712
# 44015
# 58979
# 72344
# 84231
# 95825
# 108359
#
# Disc length: 1610 seconds
# Revision: 0
# Processed by: cddbd v1.4PL0 Copyright (c) Steve Scherf et al.
# Submitted via: VisiTrax 2.9.5.180 - For more info visit www.synapsa.com
#
DISCID=8a06480a
DTITLE=Bressler Brothers - 35th year anniversary
DYEAR=1999
DGENRE=Bluegrass
TTITLE0=The Ozak Hills
TTITLE1=The way I am
TTITLE2=Do it again
TTITLE3=These eyes
TTITLE4=The night before easter
TTITLE5=Mama's prayer
TTITLE6=What he said he' do
TTITLE7=Thoughts of glory
TTITLE8=I know I'll be ready
TTITLE9=I'd rather be there
EXTD=
EXTT0=
EXTT1=
EXTT2=
EXTT3=
EXTT4=
EXTT5=
EXTT6=
EXTT7=
EXTT8=
EXTT9=
PLAYORDER=
